<svg version="1.1" viewBox="0.0 0.0 960.0 960.0" fill="none" stroke="none" stroke-linecap="square" stroke-miterlimit="10" xmlns:xlink="http://www.w3.org/1999/xlink" xmlns="http://www.w3.org/2000/svg"><clipPath id="p.0"><path d="m0 0l960.0 0l0 960.0l-960.0 0l0 -960.0z" clip-rule="nonzero"/></clipPath><g clip-path="url(#p.0)"><path fill="#000000" fill-opacity="0.0" d="m0 0l960.0 0l0 960.0l-960.0 0z" fill-rule="evenodd"/><path fill="#a5e4e1" d="m480.1063 193.10498l384.83463 139.07086l-384.83463 139.07086l-384.83466 -139.07086z" fill-rule="evenodd"/><path fill="#64c9cd" d="m469.11276 568.1984l-384.40945 -138.61176l0 -76.82129l384.40945 138.61179z" fill-rule="evenodd"/><path fill="#64c9cd" d="m490.67465 568.1984l384.40945 -138.61176l0 -76.82129l-384.40945 138.61179z" fill-rule="evenodd"/><path fill="#64c9cd" d="m469.11276 667.9691l-384.40945 -138.61182l0 -76.82126l384.40945 138.61179z" fill-rule="evenodd"/><path fill="#64c9cd" d="m490.67465 667.96747l384.40945 -138.61176l0 -76.82129l-384.40945 138.61176z" fill-rule="evenodd"/><path fill="#64c9cd" d="m469.32535 766.89606l-384.40945 -138.61176l0 -76.82129l384.40945 138.61182z" fill-rule="evenodd"/><path fill="#64c9cd" d="m490.88724 766.89606l384.40945 -138.61176l0 -76.82129l-384.40945 138.61182z" fill-rule="evenodd"/></g></svg>